<svg xmlns="http://www.w3.org/2000/svg" width="21" height="15">
  <path fill="#F9F9F9" d="M17.88 11.07v.02c.24.24.31.6.17.9a.88.88 0 0 1-.8.51H3.65a.88.88 0 0 1-.8-.48.8.8 0 0 1 .13-.9l4.7-5.56a.9.9 0 0 1 .72-.3c.28 0 .53.14.7.36l2.06 2.91 1.53-1.38a.9.9 0 0 1 1.21.02l3.98 3.9zm-1.43-5.14c-.94 0-1.7-.72-1.7-1.6 0-.9.76-1.62 1.7-1.62s1.7.72 1.7 1.61c0 .9-.76 1.61-1.7 1.61zM.65 4.58A.64.64 0 0 1 0 3.96V.63C0 .28.3 0 .66 0h3.5c.36 0 .65.28.65.63s-.3.62-.65.62H1.3v2.7c0 .35-.3.63-.65.63zm19.68 0a.64.64 0 0 1-.64-.62V1.25h-2.85c-.37 0-.66-.28-.66-.63s.3-.62.66-.62h3.5a.67.67 0 0 1 .47.18.61.61 0 0 1 .19.45v3.33a.61.61 0 0 1-.2.45.67.67 0 0 1-.47.17zM4.16 15H.66a.64.64 0 0 1-.66-.63v-3.33c0-.34.3-.62.66-.62.36 0 .65.28.65.62v2.71h2.85c.36 0 .65.28.65.63s-.3.62-.65.62zm16.17 0h-3.5c-.36 0-.66-.28-.66-.63s.3-.62.66-.62h2.86v-2.7c0-.35.3-.63.65-.63.37 0 .66.28.66.62v3.34a.61.61 0 0 1-.2.44.67.67 0 0 1-.47.18z"/>
</svg>
