<svg xmlns="http://www.w3.org/2000/svg" width="55" height="55">
  <path fill="#F9F9F9" d="M27.5 0a27.5 27.5 0 1 1 0 55 27.5 27.5 0 0 1 0-55zm-.06 2.74a6.75 6.75 0 0 0-.19 1.06c-.17 1.6-.25 3.21-.35 4.82-.2 3.62-.4 7.25-.73 10.87a107.4 107.4 0 0 1-.73 6.35 36.4 36.4 0 0 1-1.2 5.58c-.77.05-1.55.12-2.32.2-.28-.8-.43-1.61-.59-2.43a94.32 94.32 0 0 1-.8-5.82c-.47-4.1-.82-8.2-1.2-12.31-.06-.61-.12-1.22-.21-1.82-.1.26-.11.54-.16.82-.11.86-.2 1.73-.29 2.6-.48 4.83-.92 9.68-1.67 14.48a53.43 53.43 0 0 1-.65 3.47c-.18.74-.37 1.48-.64 2.19-.71.22-1.43.46-2.12.75-.32-.75-.54-1.54-.74-2.32a54.79 54.79 0 0 1-1.02-5.52c-.33-2.31-.56-4.63-.88-6.94-.09-.6-.16-1.2-.34-1.78h-.04c-.09.27-.12.57-.17.86-.22 1.6-.37 3.2-.52 4.81-.46 4.94-.86 9.9-1.24 14.84a24.73 24.73 0 0 1 7.44 4.48c3.95 3.46 8.59 7.73 11.29 12.21.05 0 .07.14.12.04a25.5 25.5 0 0 1 5.78-7.5 69.65 69.65 0 0 1 6.8-5.66 29.66 29.66 0 0 1 6.18-3.57c-.27-3.55-.56-7.1-.86-10.66-.02-.2-.04-.41-.04-.62l-.01.07c-.11-1.48-.26-2.95-.4-4.42-.13-1.36-.26-2.71-.45-4.06-.05-.3-.08-.6-.19-.88-.22.66-.28 1.35-.39 2.03-.4 2.99-.69 6-1.2 8.97-.22 1.37-.5 2.75-.88 4.1a13.04 13.04 0 0 1-.53 1.52 20.75 20.75 0 0 0-2.12-.75 22.74 22.74 0 0 1-.91-3.54 92.34 92.34 0 0 1-.86-5.51c-.52-4.02-.88-8.06-1.3-12.09l-.21-1.81c-.03-.2-.05-.4-.12-.6-.15.88-.2 1.78-.3 2.66-.4 4.32-.76 8.63-1.29 12.93-.13 1.1-.28 2.2-.45 3.3-.2 1.17-.39 2.35-.77 3.48-.77-.09-1.54-.14-2.32-.2a36.84 36.84 0 0 1-1.21-5.67c-.6-4.04-.9-8.12-1.16-12.2-.16-2.5-.29-5-.45-7.49-.07-.93-.12-1.87-.26-2.8-.03-.18-.05-.36-.13-.52z"/>
</svg>
