<svg xmlns="http://www.w3.org/2000/svg" width="16" height="16">
  <g fill="none">
    <circle cx="8" cy="8" r="8" fill="#C1D7E9"/>
    <path fill="#0D0F0F" d="M10.8 13.4a3.81 3.81 0 0 1-2.83 1.16 3.74 3.74 0 0 1-3-1.29 4.67 4.67 0 0 1-1.04-3.13c0-1.37.6-2.93 1.78-4.68a17.68 17.68 0 0 1 3.43-3.77c-.2.87-.29 1.5-.29 1.86 0 .85.27 1.68.8 2.48a85.28 85.28 0 0 0 1.5 2.14c.53.8.8 1.59.8 2.35 0 1.14-.39 2.1-1.15 2.87zm-.02-4.38c-.2-.46-.45-.77-.72-.92a.8.8 0 0 1 .06.35c0 .3-.08.7-.24 1.23l-.27.82c0 .48.24.72.72.72.5 0 .76-.33.76-1a3 3 0 0 0-.31-1.2z"/>
  </g>
</svg>
