<svg xmlns="http://www.w3.org/2000/svg" width="16" height="16">
  <g fill="none">
    <path fill="#A3C095" d="M16 8A8 8 0 1 1 0 8a8 8 0 0 1 16 0z"/>
    <path fill="#0D0F0F" d="M15 9a1 1 0 0 1-.3.72.96.96 0 0 1-.72.32.99.99 0 0 1-.94-.6l-.94-.04c-.2 0-.59.08-1.18.26-.62.17-.98.3-1.08.42-.14.16-.26.53-.36 1.12a7.2 7.2 0 0 0-.12 1.06c0 .35.06.62.18.78.1.17.34.31.7.42.35.12.56.18.64.2l.26-.03h.24c.18 0 .36.03.54.08.27.08.39.19.35.32-.2-.02-.52.02-.98.12l.56.28c0 .16-.23.24-.68.24a2.1 2.1 0 0 1-.5-.08 2.09 2.09 0 0 0-.4-.08H10a4.62 4.62 0 0 1-.12.6c-.23-.01-.5-.14-.8-.4-.31-.25-.5-.38-.58-.38-.08 0-.2.13-.34.38-.15.26-.22.43-.22.52a1.1 1.1 0 0 1-.44-.52 8.06 8.06 0 0 0-.18-.52c-.14.02-.38.3-.74.84h-.1a9.48 9.48 0 0 1-.3-.84 3.79 3.79 0 0 0-1.16-.2c-.17 0-.44.04-.8.12l-.56-.04c.08-.08.31-.23.7-.46.45-.26.8-.4 1.04-.4l.16.02a.8.8 0 0 0 .16.02c.1 0 .24-.05.45-.15.2-.1.32-.19.36-.27.03-.08.05-.28.05-.62 0-.75-.2-1.32-.6-1.7a3.35 3.35 0 0 0-1.72-.71c-.21.75-.81 1.13-1.8 1.13-.32 0-.64-.19-.96-.57-.32-.4-.48-.74-.48-1.06 0-.5.2-.9.62-1.22-.33-.35-.5-.7-.5-1.06 0-.34.1-.63.31-.88.2-.25.48-.4.81-.44-.03-.43.11-.72.42-.88-.15-.15-.22-.4-.22-.78 0-.44.15-.8.44-1.1a1.49 1.49 0 0 1 1.1-.44c.48 0 .87.17 1.18.5.39-1.32 1.22-1.98 2.5-1.98.66 0 1.25.27 1.76.8.18.2.28.3.28.32-.16 0-.08-.03.24-.09s.55-.09.7-.09c.51 0 .97.2 1.37.58.35.35.59.79.72 1.32.1.01.24.05.44.12.3.15.44.4.44.76 0 .07-.05.2-.16.38.86.48 1.28 1.14 1.28 2 0 .24-.1.57-.28 1 .35.2.52.49.52.88zm-8.23.88v-.26c0-.31-.15-.6-.45-.84a1.4 1.4 0 0 0-.91-.38c-.37 0-.72.08-1.04.26.7-.04 1.5.36 2.4 1.22zM6.4 7.4c-.2-.23-.37-.46-.52-.7-.56.14-.84.31-.84.5.16-.02.4.01.7.09.3.07.52.1.66.1zm1.22-.62V5.9a5.68 5.68 0 0 0-.58-.08v.3l.58.66zm2.6-.56l-.9-.4v1.72c.62-.36.92-.8.9-1.32zm1.1 2.36l-.45-.54-.8.57c-.28.19-.51.4-.71.65.6-.32 1.25-.55 1.95-.68z"/>
  </g>
</svg>
