<svg xmlns="http://www.w3.org/2000/svg" width="16" height="17">
  <g fill="none">
    <circle cx="8" cy="8.16" r="8" fill="#BAB1AB"/>
    <path fill="#0D0F0F" d="M14.51 7.94c0 .88-.32 1.48-.96 1.8-.19.1-.78.23-1.77.39-.64.1-.96.35-.96.74v1.62l.06.63.06.64c0 .2-.05.53-.14.98l-.88.18a3.9 3.9 0 0 1-.16-.82c0-.07.01-.17.05-.3l.05-.3c0-.1-.09-.36-.25-.79H9.3a.4.4 0 0 0-.05.26c.06.23.08.43.06.59a45.2 45.2 0 0 1-.94.64c-.1-.03-.13-.04-.1-.04v-1.43c-.03-.06-.1-.09-.2-.08h-.24l-.24 1.9a5.73 5.73 0 0 1-.68 0 36.97 36.97 0 0 0-.5-1.98h-.17l-.24.77.05.3.05.32-.04.3-.06.48a.14.14 0 0 1-.1.04c-.4 0-.67-.1-.8-.3-.13-.2-.19-.48-.16-.84l.16-2.41c0-.04.01-.1.04-.16a.47.47 0 0 0 .04-.14c0-.1-.11-.32-.34-.64-.04-.02-.25-.06-.62-.14a52.89 52.89 0 0 0-1.35-.29C1.95 9.7 1.5 8.95 1.5 7.64c0-1.96.8-3.58 2.4-4.88.07.36.19.84.35 1.45l.78.18 1.22.44c-.37-.23-.86-.6-1.46-1.1-.23-.27-.34-.72-.34-1.35 0-.15.25-.32.76-.52.46-.19.8-.3 1.02-.32.73-.1 1.28-.14 1.67-.14 1.67 0 3.02.43 4.05 1.28-.33.39-.9.8-1.72 1.25.32 0 .79-.12 1.4-.39.62-.26.88-.4.78-.4.11 0 .33.22.65.64a7.55 7.55 0 0 1 1.45 3.33l.01.67v.16zm-7.68.36c0-.57-.25-1.12-.76-1.64a2.24 2.24 0 0 0-1.61-.77c-.51 0-.96.22-1.35.65-.38.43-.58.9-.58 1.43 0 .46.22.76.66.9.29.07.68.12 1.19.13h1.1c.9.02 1.35-.22 1.35-.7zM9 10.79v-.62a19.62 19.62 0 0 1-.28-.54c-.08-.27-.22-.65-.44-1.13l-.22 2.35c0 .19-.04.28-.12.28-.05 0-.1-.01-.12-.04-.1-1.42-.14-2.03-.14-1.85v-.7c-.03-.04-.06-.06-.1-.06-.46.47-.68 1.23-.68 2.27 0 .57.05.93.16 1.06.1-.02.22-.07.36-.14.05-.02.2-.04.46-.04.25 0 .56.08.92.24.14 0 .2-.36.2-1.08zm4.54-2.8c0-.54-.2-1.02-.6-1.44-.4-.42-.87-.64-1.39-.64-.56 0-1.09.26-1.57.78a2.33 2.33 0 0 0-.74 1.61c0 .47.23.7.69.7h2.3c.87-.01 1.3-.35 1.3-1z"/>
  </g>
</svg>
