<svg xmlns="http://www.w3.org/2000/svg" width="16" height="16">
  <g fill="none">
    <circle cx="8" cy="8" r="8" fill="#E49977"/>
    <path fill="#0D0F0F" d="M14.71 10.66c-.6 1.43-1.78 2.14-3.56 2.14-.33 0-.68.04-1.06.12-.57.12-.85.3-.85.5 0 .08.04.16.14.24.1.1.17.14.24.14l.7.02 1.5.04c-1.18.69-3.16 1-5.93.95a3.01 3.01 0 0 1-2.34-1.2 3.76 3.76 0 0 1-.95-2.5 3.47 3.47 0 0 1 3.44-3.53c.22 0 .5.05.86.15.36.1.6.14.73.14.5 0 1.12-.2 1.87-.62s1.1-.62 1.06-.62C10.42 8.05 9.95 9 9.13 9.5c-.58.34-.87.67-.87 1 0 .2.12.36.36.48.2.1.4.15.64.15.35 0 .7-.22 1.04-.65.33-.44.48-.83.44-1.19-.04-.4-.01-.9.08-1.46.03-.17.13-.37.3-.6.17-.24.32-.39.46-.44 0 .12-.05.32-.14.6-.08.3-.13.5-.13.64 0 .3.09.53.25.7.24-.1.46-.4.65-.92.16-.4.26-.78.28-1.14a2.58 2.58 0 0 1-1.64-.78c-.52-.49-.78-1.02-.78-1.59 0-.1.01-.19.04-.28l.37.57c.23.34.4.5.53.5.16 0 .24-.16.24-.5 0-.44-.11-.83-.34-1.18-.26-.42-.6-.63-1-.63-.2 0-.48.1-.86.3-.38.2-.72.3-1.04.3-.1 0-.51-.12-1.26-.36 1.32-.22 1.98-.41 1.98-.59 0-.46-.9-.77-2.71-.94l-.98-.08a13.97 13.97 0 0 1 2.44-.33c3.24 0 5.29 1.57 6.15 4.71.15-.12.23-.33.23-.62 0-.37-.11-.84-.33-1.4l-.38-1c1.1 1.42 1.67 2.77 1.67 4.04a3.6 3.6 0 0 1-.47 1.82c-.2.37-.59.84-1.14 1.41a9.94 9.94 0 0 0-1.14 1.33c.74-.2 1.23-.36 1.46-.47.52-.23.99-.57 1.4-1.04 0 .18-.07.45-.22.8zm-8.88-8c0 .24-.13.4-.4.46l-.53.08c-.2.1-.47.47-.84 1.12a47.07 47.07 0 0 0-.18-.85c-.12.01-.33.12-.61.33l-.6.42c.09-.49.36-.98.82-1.48.5-.56.97-.84 1.43-.84.6 0 .91.25.91.76zm3.55 1.87c0 .23-.13.42-.38.58a1.4 1.4 0 0 1-.74.23c-.33 0-.62-.18-.88-.55a2.36 2.36 0 0 0-.96-.87.34.34 0 0 1 .25-.1c.12 0 .33.09.62.28.3.19.48.29.56.29.07 0 .18-.1.34-.29.15-.19.33-.28.52-.28.44 0 .67.23.67.7z"/>
  </g>
</svg>
