<svg xmlns="http://www.w3.org/2000/svg" width="16" height="16">
  <g fill="none">
    <circle cx="8" cy="8" r="8" fill="#F8F6D8"/>
    <path fill="#0D0F0F" d="M15.63 9.13c-1.05-.6-1.72-.89-2.02-.89-.21 0-.38.17-.5.5-.12.33-.37.5-.73.5-.15 0-.45-.06-.9-.17-.26.39-.4.64-.4.75 0 .14.12.32.34.52.22.2.4.3.56.3.1 0 .22-.02.39-.06.16-.04.27-.06.33-.06.16 0 .24.3.24.91 0 .58-.13 1.47-.4 2.67-.35-1.38-.72-2.06-1.1-2.06-.06 0-.17.04-.34.12a1 1 0 0 1-.38.12c-.39 0-.74-.36-1.05-1.07-.61.1-.92.41-.92.95 0 .27.12.48.37.64.25.17.37.28.37.35 0 .36-.53.92-1.6 1.67l-1.16.85c.19-.24.37-.56.56-.95.22-.44.33-.79.33-1.03 0-.13-.16-.32-.47-.56-.3-.25-.46-.5-.46-.77 0-.23.08-.51.24-.85a.8.8 0 0 0-.63-.3c-.53 0-.8.17-.8.52v.55c.01.44-.33.66-1.01.66-.53 0-1.4-.12-2.65-.36 1.4-.35 2.1-.75 2.1-1.2l-.08-.5c-.05-.41.24-.79.89-1.12-.12-.62-.44-.93-.97-.93-.08 0-.23.14-.44.42-.22.28-.42.42-.6.42-.33 0-.75-.35-1.26-1.05L.37 7.07l.93.49c.4.18.72.28.97.28.19 0 .37-.17.55-.5.18-.33.42-.5.72-.5.04 0 .3.09.8.25.26-.39.39-.68.39-.87 0-.16-.1-.34-.3-.55-.19-.21-.37-.32-.53-.32-.07 0-.17.02-.31.06a1.28 1.28 0 0 1-.31.07c-.25 0-.37-.3-.37-.91 0-.16.16-1.09.47-2.77-.02.2.07.58.26 1.13.23.67.5 1.01.8 1.01.06 0 .17-.04.33-.12a.94.94 0 0 1 .38-.12c.31 0 .57.17.77.52l.3.55c.29 0 .52-.1.71-.3.19-.2.28-.45.28-.73a.75.75 0 0 0-.37-.68c-.25-.15-.37-.27-.37-.35 0-.28.44-.76 1.33-1.43C8.5.74 8.98.42 9.2.33c-.59.78-.88 1.35-.88 1.71 0 .2.12.4.35.61.28.26.44.44.48.55.13.3.12.73-.04 1.27.36.25.64.38.83.38.39 0 .58-.2.58-.6 0-.05-.01-.17-.05-.39a1.23 1.23 0 0 1-.03-.36c.06-.2.43-.29 1.11-.29.43 0 1.33.12 2.69.37l-1.33.36c-.54.16-.81.34-.81.55 0 .1.03.25.1.48.07.23.1.4.1.5 0 .2-.12.37-.36.53l-.69.48c.16.3.27.48.32.53a.67.67 0 0 0 .55.24c.16 0 .3-.14.44-.42.14-.28.35-.43.65-.43.36 0 .77.34 1.23 1.01l1.19 1.72zm-4.48-1.17c0-.86-.32-1.6-.95-2.24a3.06 3.06 0 0 0-2.24-.95 3.1 3.1 0 0 0-2.26.94 3.13 3.13 0 0 0-.97 2.25c-.01.86.3 1.6.96 2.23.65.63 1.4.94 2.27.94.92 0 1.68-.3 2.29-.9.61-.6.91-1.35.9-2.27zm-.3 0c0 .82-.28 1.5-.83 2.04-.55.54-1.24.8-2.06.8a2.81 2.81 0 0 1-2.04-.82 2.71 2.71 0 0 1-.85-2.02c0-.78.29-1.45.86-2a2.8 2.8 0 0 1 2.03-.85c.78 0 1.46.29 2.03.85.57.57.86 1.23.86 2z"/>
  </g>
</svg>
