<svg xmlns="http://www.w3.org/2000/svg" width="16" height="18">
  <path fill="#1C1F20" d="M3.3 14.71l1.63 1.64a.71.71 0 1 1-1 1.01l-2.86-2.85a.71.71 0 0 1 0-1.01l2.85-2.86a.71.71 0 0 1 1.01 1L3.3 13.3h8.27c1.18 0 2.14-.96 2.14-2.15V9.71a.71.71 0 1 1 1.43 0v1.43a3.57 3.57 0 0 1-3.57 3.57H3.3zm9.4-10H4.43c-1.18 0-2.14.96-2.14 2.15v1.43a.71.71 0 0 1-1.43 0V6.86a3.57 3.57 0 0 1 3.57-3.57h8.28l-1.64-1.64a.71.71 0 0 1 1-1.01l2.86 2.86a.71.71 0 0 1 0 1l-2.85 2.86a.71.71 0 0 1-1.01-1L12.7 4.7z"/>
</svg>
